<?xml version="1.0" encoding="UTF-8" standalone="no"?>
<svg width="420px" height="420px" viewBox="0 0 420 420" version="1.1" xmlns="http://www.w3.org/2000/svg" xmlns:xlink="http://www.w3.org/1999/xlink">
    <!-- Generator: Sketch 39.1 (31720) - http://www.bohemiancoding.com/sketch -->
    <title>zan-logo</title>
    <desc>Created with Sketch.</desc>
    <defs></defs>
    <g id="Design" stroke="none" stroke-width="1" fill="none" fill-rule="evenodd">
        <g id="Normal">
            <g id="zan-logo">
                <g>
                    <g id="Background">
                        <path d="M210,420 C325.979797,420 420,325.979797 420,210 C420,94.0202025 325.979797,0 210,0 C94.0202025,0 0,94.0202025 0,210 C0,325.979797 94.0202025,420 210,420 Z" id="Oval" fill="#303030"></path>
                        <path d="M210,400 C314.934102,400 400,314.934102 400,210 C400,105.065898 314.934102,20 210,20 C105.065898,20 20,105.065898 20,210 C20,314.934102 105.065898,400 210,400 Z" id="Oval" fill="#FFFFFF"></path>
                        <path d="M210,390 C309.411255,390 390,309.411255 390,210 C390,110.588745 309.411255,30 210,30 C110.588745,30 30,110.588745 30,210 C30,309.411255 110.588745,390 210,390 Z" id="Oval" fill="#303030"></path>
                    </g>
                    <g id="PHP" transform="translate(308.000000, 12.000000)">
                        <path d="M50,100 C77.6142375,100 100,77.6142375 100,50 C100,22.3857625 77.6142375,0 50,0 C22.3857625,0 0,22.3857625 0,50 C0,77.6142375 22.3857625,100 50,100 Z" id="Oval" fill="#33A5ED"></path>
                        <path d="M22.3220145,38.8623047 L22.3220145,60 L26.7458426,60 L26.7458426,53.4375 L30.9206473,53.4375 C35.3737723,53.4375 38.4645926,50.5224609 38.4645926,46.171875 C38.4645926,41.7773438 35.4909598,38.8623047 31.1403739,38.8623047 L22.3220145,38.8623047 Z M26.7458426,42.4951172 L29.9684989,42.4951172 C32.517327,42.4951172 33.9675223,43.7841797 33.9675223,46.1865234 C33.9675223,48.5595703 32.4880301,49.8486328 29.9538504,49.8486328 L26.7458426,49.8486328 L26.7458426,42.4951172 Z M60.0917132,60 L60.0917132,38.8623047 L55.667885,38.8623047 L55.667885,47.3876953 L46.1464007,47.3876953 L46.1464007,38.8623047 L41.7225725,38.8623047 L41.7225725,60 L46.1464007,60 L46.1464007,51.1669922 L55.667885,51.1669922 L55.667885,60 L60.0917132,60 Z M64.4043806,38.8623047 L64.4043806,60 L68.8282087,60 L68.8282087,53.4375 L73.0030134,53.4375 C77.4561384,53.4375 80.5469587,50.5224609 80.5469587,46.171875 C80.5469587,41.7773438 77.5733259,38.8623047 73.22274,38.8623047 L64.4043806,38.8623047 Z M68.8282087,42.4951172 L72.050865,42.4951172 C74.5996931,42.4951172 76.0498884,43.7841797 76.0498884,46.1865234 C76.0498884,48.5595703 74.5703962,49.8486328 72.0362165,49.8486328 L68.8282087,49.8486328 L68.8282087,42.4951172 Z" fill="#DDEDFC"></path>
                    </g>
                    <g id="Z" transform="translate(120.000000, 119.000000)" stroke-linecap="round">
                        <polyline id="Path" stroke="#303030" stroke-width="60" stroke-linejoin="round" points="20 22 160 22 20 162 160 162"></polyline>
                        <g id="—" transform="translate(0.000000, 140.000000)" stroke-width="10">
                            <path d="M10,1 L50,1" id="Line" stroke="#FAB477"></path>
                            <path d="M70,1 L90,1" id="Line" stroke="#FFA49F"></path>
                            <path d="M110,1 L170,1" id="Line" stroke="#33A5ED"></path>
                            <path d="M30,21 L90,21" id="Line" stroke="#33A5ED"></path>
                            <path d="M10,41 L50,41" id="Line" stroke="#A8E281"></path>
                            <path d="M70,41 L90,41" id="Line" stroke="#F7DF8B"></path>
                            <path d="M0,21 L10,21" id="Line" stroke="#DDEDFC"></path>
                            <path d="M150,41 L170,41" id="Line" stroke="#FFA49F"></path>
                            <path d="M110,21 L180,21" id="Line" stroke="#A8E281"></path>
                            <path d="M110,41 L130,41" id="Line" stroke="#DDEDFC"></path>
                        </g>
                        <g id="／" transform="translate(30.000000, 60.000000)" stroke-width="10">
                            <path d="M50,41 L80,41" id="Line" stroke="#DDEDFC"></path>
                            <path d="M40,21 L100,21" id="Line" stroke="#33A5ED"></path>
                            <path d="M60,1 L90,1" id="Line" stroke="#A8E281"></path>
                            <path d="M110,1 L120,1" id="Line" stroke="#FAB477"></path>
                            <path d="M20,41 L30,41" id="Line" stroke="#FFA49F"></path>
                            <path d="M0,61 L20,61" id="Line" stroke="#A8E281"></path>
                            <path d="M40,61 L60,61" id="Line" stroke="#F7DF8B"></path>
                        </g>
                        <g id="—" stroke-width="10">
                            <path d="M10,1 L50,1" id="Line" stroke="#33A5ED"></path>
                            <path d="M70,1 L90,1" id="Line" stroke="#A8E281"></path>
                            <path d="M110,1 L170,1" id="Line" stroke="#F7DF8B"></path>
                            <path d="M0,21 L60,21" id="Line" stroke="#FAB477"></path>
                            <path d="M10,41 L90,41" id="Line" stroke="#A8E281"></path>
                            <path d="M80,21 L90,21" id="Line" stroke="#FFA49F"></path>
                            <path d="M150,41 L170,41" id="Line" stroke="#FFA49F"></path>
                            <path d="M110,21 L180,21" id="Line" stroke="#33A5ED"></path>
                            <path d="M110,41 L130,41" id="Line" stroke="#DDEDFC"></path>
                        </g>
                    </g>
                </g>
            </g>
        </g>
    </g>
</svg>